<?xml version="1.0" standalone="no"?><svg xmlns:xlink="http://www.w3.org/1999/xlink" xmlns="http://www.w3.org/2000/svg" viewBox="0 0 1900 950" preserveAspectRatio="xMaxYMax slice"><g transform="scale(1.6873889875666075)"><rect x="0" y="0" width="1126" height="563" fill="#ffffff"/><rect x="0" y="0" width="80.43" height="80.43" fill="#fefcdc"/><path d="M 0 0 A 80.43 80.43 0 0 0 80.43 80.43 L 80.43 0" fill="#fdd29a"/><rect x="80.43" y="0" width="80.43" height="80.43" fill="#faf483"/><rect x="80.43" y="0" width="80.43" height="80.43" fill="#fee3c1"/><rect x="160.86" y="0" width="80.43" height="80.43" fill="#e0eec9"/><rect x="160.86" y="0" width="80.43" height="80.43" fill="#fddbae"/><rect x="241.29" y="0" width="80.43" height="80.43" fill="#fdfcd8"/><polygon points="241.29,0 321.72,80.43 241.29,80.43" fill="#fedeb5"/><rect x="321.71" y="0" width="80.43" height="80.43" fill="#fff7ed"/><path d="M 321.71 80.43 A 80.43 80.43 0 0 0 402.14 0 L 321.71 0" fill="#fffaf3"/><rect x="402.14" y="0" width="80.43" height="80.43" fill="#e5f1d2"/><rect x="402.14" y="0" width="80.43" height="80.43" fill="#fddbae"/><rect x="482.57" y="0" width="80.43" height="80.43" fill="#ddecc4"/><path d="M 482.57 80.43 A 80.43 80.43 0 0 1  563 0 L 482.57 80.43 A 80.43 80.43 0 0 0 563 0" fill="#fbfdf8"/><rect x="563" y="0" width="80.43" height="80.43" fill="#f5faee"/><polygon points="563,0 643.4300000000001,0 643.4300000000001,80.43" fill="#fbf699"/><rect x="643.43" y="0" width="80.43" height="80.43" fill="#faf585"/><rect x="643.43" y="0" width="80.43" height="80.43" fill="#fef0dd"/><rect x="723.86" y="0" width="80.43" height="80.43" fill="#e9f3d9"/><polygon points="723.86,0 804.29,80.43 723.86,80.43" fill="#fee6c7"/><rect x="804.29" y="0" width="80.43" height="80.43" fill="#fddaac"/><polygon points="804.29,0 884.72,0 804.29,80.43" fill="#fbfdf8"/><rect x="884.71" y="0" width="80.43" height="80.43" fill="#f8fbf2"/><path d="M 884.71 80.43 A 80.43 80.43 0 0 0 965.1400000000001 0 L 884.71 0" fill="#ebf4dd"/><rect x="965.14" y="0" width="80.43" height="80.43" fill="#d7e9b9"/><path d="M 965.14 0 A 80.43 80.43 0 0 0 1045.57 80.43 L 1045.57 0" fill="#f7faf0"/><rect x="1045.57" y="0" width="80.43" height="80.43" fill="#fbfdf8"/><polygon points="1045.57,0 1126,80.43 1045.57,80.43" fill="#fef2e3"/><rect x="0" y="80.43" width="80.43" height="80.43" fill="#f0f7e4"/><rect x="0" y="80.43" width="80.43" height="80.43" fill="#fffaf3"/><rect x="80.43" y="80.43" width="80.43" height="80.43" fill="#fedfb7"/><path d="M 80.43 80.43 A 80.43 80.43 0 0 1 160.86 160.86 L 80.43 160.86" fill="#e5f1d2"/><rect x="160.86" y="80.43" width="80.43" height="80.43" fill="#fbf698"/><rect x="160.86" y="80.43" width="80.43" height="80.43" fill="#f7fbf2"/><rect x="241.29" y="80.43" width="80.43" height="80.43" fill="#fdd4a0"/><path d="M 241.29 80.43 A 80.43 80.43 0 0 1 321.72 160.86 L 241.29 160.86" fill="#f8fbf3"/><rect x="321.71" y="80.43" width="80.43" height="80.43" fill="#fbf79c"/><polygon points="321.71,80.43 402.14,80.43 321.71,160.86" fill="#fef3e3"/><rect x="402.14" y="80.43" width="80.43" height="80.43" fill="#fdfbcf"/><polygon points="402.14,80.43 482.57,80.43 402.14,160.86" fill="#eaf4db"/><rect x="482.57" y="80.43" width="80.43" height="80.43" fill="#e0eeca"/><path d="M 482.57 80.43 A 80.43 80.43 0 0 1 563 160.86 L 482.57 160.86" fill="#fdd299"/><rect x="563" y="80.43" width="80.43" height="80.43" fill="#fdfbce"/><rect x="563" y="80.43" width="80.43" height="80.43" fill="#fbfdf8"/><rect x="643.43" y="80.43" width="80.43" height="80.43" fill="#e3efce"/><polygon points="643.43,80.43 723.8599999999999,160.86 643.43,160.86" fill="#fffef9"/><rect x="723.86" y="80.43" width="80.43" height="80.43" fill="#e7f2d5"/><polygon points="723.86,80.43 804.29,80.43 804.29,160.86" fill="#e8f2d6"/><rect x="804.29" y="80.43" width="80.43" height="80.43" fill="#fee3c0"/><rect x="804.29" y="80.43" width="80.43" height="80.43" fill="#fffef7"/><rect x="884.71" y="80.43" width="80.43" height="80.43" fill="#f3f8e9"/><polygon points="884.71,80.43 965.1400000000001,160.86 884.71,160.86" fill="#f1f8e7"/><rect x="965.14" y="80.43" width="80.43" height="80.43" fill="#f3f9eb"/><path d="M 965.14 160.86 A 80.43 80.43 0 0 0 1045.57 80.43 L 965.14 80.43" fill="#e4f0d0"/><rect x="1045.57" y="80.43" width="80.43" height="80.43" fill="#fee8cb"/><rect x="1045.57" y="80.43" width="80.43" height="80.43" fill="#fedeb5"/><rect x="0" y="160.86" width="80.43" height="80.43" fill="#fee8cc"/><path d="M 0 160.86 A 80.43 80.43 0 0 1 80.43 241.29000000000002 L 0 241.29000000000002" fill="#fefce1"/><rect x="80.43" y="160.86" width="80.43" height="80.43" fill="#fedcb1"/><polygon points="80.43,160.86 160.86,160.86 160.86,241.29000000000002" fill="#f1f7e6"/><rect x="160.86" y="160.86" width="80.43" height="80.43" fill="#e7f2d5"/><rect x="160.86" y="160.86" width="80.43" height="80.43" fill="#fff8ef"/><rect x="241.29" y="160.86" width="80.43" height="80.43" fill="#fdd5a2"/><polygon points="241.29,160.86 321.72,160.86 241.29,241.29000000000002" fill="#feeacf"/><rect x="321.71" y="160.86" width="80.43" height="80.43" fill="#fcf8b3"/><polygon points="321.71,160.86 402.14,160.86 321.71,241.29000000000002" fill="#fdd39e"/><rect x="402.14" y="160.86" width="80.43" height="80.43" fill="#fefcde"/><rect x="402.14" y="160.86" width="80.43" height="80.43" fill="#f3f9eb"/><rect x="482.57" y="160.86" width="80.43" height="80.43" fill="#feedd7"/><path d="M 482.57 160.86 A 80.43 80.43 0 0 1 563 241.29000000000002 L 482.57 241.29000000000002" fill="#fbf58d"/><rect x="563" y="160.86" width="80.43" height="80.43" fill="#feedd7"/><path d="M 563 241.29000000000002 A 80.43 80.43 0 0 0 643.4300000000001 160.86 L 563 160.86" fill="#fefde3"/><rect x="643.43" y="160.86" width="80.43" height="80.43" fill="#fdfbcb"/><path d="M 643.43 241.29000000000002 A 80.43 80.43 0 0 1  723.8599999999999 160.86 L 643.43 241.29000000000002 A 80.43 80.43 0 0 0 723.8599999999999 160.86" fill="#fdfac2"/><rect x="723.86" y="160.86" width="80.43" height="80.43" fill="#fffdfb"/><rect x="723.86" y="160.86" width="80.43" height="80.43" fill="#edf5e0"/><rect x="804.29" y="160.86" width="80.43" height="80.43" fill="#faf58a"/><rect x="804.29" y="160.86" width="80.43" height="80.43" fill="#fdd5a2"/><rect x="884.71" y="160.86" width="80.43" height="80.43" fill="#fefde3"/><polygon points="884.71,160.86 965.1400000000001,241.29000000000002 884.71,241.29000000000002" fill="#fee2bf"/><rect x="965.14" y="160.86" width="80.43" height="80.43" fill="#fefcdf"/><path d="M 965.14 241.29000000000002 A 80.43 80.43 0 0 0 1045.57 160.86 L 965.14 160.86" fill="#fcfdfa"/><rect x="1045.57" y="160.86" width="80.43" height="80.43" fill="#fefde7"/><polygon points="1126,160.86 1126,241.29000000000002 1045.57,241.29000000000002" fill="#f8fbf3"/><rect x="0" y="241.29" width="80.43" height="80.43" fill="#fdfbce"/><polygon points="0,241.29 80.43,241.29 0,321.72" fill="#ecf5de"/><rect x="80.43" y="241.29" width="80.43" height="80.43" fill="#fee7ca"/><rect x="80.43" y="241.29" width="80.43" height="80.43" fill="#fee5c5"/><rect x="160.86" y="241.29" width="80.43" height="80.43" fill="#ecf5df"/><polygon points="160.86,241.29 241.29000000000002,241.29 160.86,321.72" fill="#f7fbf1"/><rect x="241.29" y="241.29" width="80.43" height="80.43" fill="#fdd6a4"/><path d="M 241.29 321.72 A 80.43 80.43 0 0 1  321.72 241.29 L 241.29 321.72 A 80.43 80.43 0 0 0 321.72 241.29" fill="#fedfb6"/><rect x="321.71" y="241.29" width="80.43" height="80.43" fill="#fddbaf"/><polygon points="402.14,241.29 402.14,321.72 321.71,321.72" fill="#fffffb"/><rect x="402.14" y="241.29" width="80.43" height="80.43" fill="#fee6c7"/><path d="M 402.14 241.29 A 80.43 80.43 0 0 1 482.57 321.72 L 402.14 321.72" fill="#e2efcb"/><rect x="482.57" y="241.29" width="80.43" height="80.43" fill="#fef0de"/><polygon points="563,241.29 563,321.72 482.57,321.72" fill="#f8fbf2"/><rect x="563" y="241.29" width="80.43" height="80.43" fill="#fffdfa"/><path d="M 563 321.72 A 80.43 80.43 0 0 1  643.4300000000001 241.29 L 563 321.72 A 80.43 80.43 0 0 0 643.4300000000001 241.29" fill="#fee6c8"/><rect x="643.43" y="241.29" width="80.43" height="80.43" fill="#fcf8aa"/><rect x="643.43" y="241.29" width="80.43" height="80.43" fill="#fdfac5"/><rect x="723.86" y="241.29" width="80.43" height="80.43" fill="#fee5c5"/><path d="M 723.86 241.29 A 80.43 80.43 0 0 0 804.29 321.72 L 804.29 241.29" fill="#e8f2d7"/><rect x="804.29" y="241.29" width="80.43" height="80.43" fill="#fff8ef"/><path d="M 804.29 241.29 A 80.43 80.43 0 0 1 884.72 321.72 L 804.29 321.72" fill="#fddaab"/><rect x="884.71" y="241.29" width="80.43" height="80.43" fill="#e3f0cf"/><path d="M 884.71 321.72 A 80.43 80.43 0 0 0 965.1400000000001 241.29 L 884.71 241.29" fill="#e7f2d5"/><rect x="965.14" y="241.29" width="80.43" height="80.43" fill="#d7e9ba"/><path d="M 965.14 241.29 A 80.43 80.43 0 0 1 1045.57 321.72 L 965.14 321.72" fill="#fbf79f"/><rect x="1045.57" y="241.29" width="80.43" height="80.43" fill="#fdd9ab"/><rect x="1045.57" y="241.29" width="80.43" height="80.43" fill="#fdfbd3"/><rect x="0" y="321.71" width="80.43" height="80.43" fill="#fefde4"/><polygon points="0,321.71 80.43,321.71 0,402.14" fill="#f7fbf1"/><rect x="80.43" y="321.71" width="80.43" height="80.43" fill="#fee6c8"/><polygon points="160.86,321.71 160.86,402.14 80.43,402.14" fill="#fbfdf8"/><rect x="160.86" y="321.71" width="80.43" height="80.43" fill="#feeed9"/><rect x="160.86" y="321.71" width="80.43" height="80.43" fill="#fee0bb"/><rect x="241.29" y="321.71" width="80.43" height="80.43" fill="#faf483"/><rect x="241.29" y="321.71" width="80.43" height="80.43" fill="#fcf8ae"/><rect x="321.71" y="321.71" width="80.43" height="80.43" fill="#f6faf0"/><path d="M 321.71 402.14 A 80.43 80.43 0 0 0 402.14 321.71 L 321.71 321.71" fill="#eef6e1"/><rect x="402.14" y="321.71" width="80.43" height="80.43" fill="#fafcf7"/><rect x="402.14" y="321.71" width="80.43" height="80.43" fill="#fcf9be"/><rect x="482.57" y="321.71" width="80.43" height="80.43" fill="#fee5c5"/><polygon points="563,321.71 563,402.14 482.57,402.14" fill="#f8fbf3"/><rect x="563" y="321.71" width="80.43" height="80.43" fill="#e6f1d4"/><polygon points="563,321.71 643.4300000000001,402.14 563,402.14" fill="#fbf79d"/><rect x="643.43" y="321.71" width="80.43" height="80.43" fill="#fdfbd4"/><polygon points="643.43,321.71 723.8599999999999,321.71 643.43,402.14" fill="#e3f0ce"/><rect x="723.86" y="321.71" width="80.43" height="80.43" fill="#fef3e5"/><polygon points="804.29,321.71 804.29,402.14 723.86,402.14" fill="#fdd7a5"/><rect x="804.29" y="321.71" width="80.43" height="80.43" fill="#fffef6"/><polygon points="804.29,321.71 884.72,321.71 804.29,402.14" fill="#fdfaca"/><rect x="884.71" y="321.71" width="80.43" height="80.43" fill="#fff6eb"/><polygon points="965.1400000000001,321.71 965.1400000000001,402.14 884.71,402.14" fill="#d8eabb"/><rect x="965.14" y="321.71" width="80.43" height="80.43" fill="#fefde6"/><path d="M 965.14 321.71 A 80.43 80.43 0 0 1 1045.57 402.14 L 965.14 402.14" fill="#fbf7a3"/><rect x="1045.57" y="321.71" width="80.43" height="80.43" fill="#fbf69c"/><rect x="1045.57" y="321.71" width="80.43" height="80.43" fill="#fcf8ae"/><rect x="0" y="402.14" width="80.43" height="80.43" fill="#dfedc7"/><rect x="0" y="402.14" width="80.43" height="80.43" fill="#f1f7e6"/><rect x="80.43" y="402.14" width="80.43" height="80.43" fill="#fffef4"/><path d="M 80.43 402.14 A 80.43 80.43 0 0 1  160.86 482.57 L 80.43 402.14 A 80.43 80.43 0 0 0 160.86 482.57" fill="#fdfac4"/><rect x="160.86" y="402.14" width="80.43" height="80.43" fill="#feebd3"/><polygon points="160.86,402.14 241.29000000000002,482.57 160.86,482.57" fill="#f2f8e8"/><rect x="241.29" y="402.14" width="80.43" height="80.43" fill="#ebf4db"/><rect x="241.29" y="402.14" width="80.43" height="80.43" fill="#fdd39e"/><rect x="321.71" y="402.14" width="80.43" height="80.43" fill="#fffef7"/><path d="M 321.71 402.14 A 80.43 80.43 0 0 1 402.14 482.57 L 321.71 482.57" fill="#fdfbd0"/><rect x="402.14" y="402.14" width="80.43" height="80.43" fill="#fefeee"/><path d="M 402.14 402.14 A 80.43 80.43 0 0 1  482.57 482.57 L 402.14 402.14 A 80.43 80.43 0 0 0 482.57 482.57" fill="#d9eabd"/><rect x="482.57" y="402.14" width="80.43" height="80.43" fill="#fbf691"/><rect x="482.57" y="402.14" width="80.43" height="80.43" fill="#fef2e2"/><rect x="563" y="402.14" width="80.43" height="80.43" fill="#f5f9ed"/><path d="M 563 482.57 A 80.43 80.43 0 0 0 643.4300000000001 402.14 L 563 402.14" fill="#fdd49e"/><rect x="643.43" y="402.14" width="80.43" height="80.43" fill="#fdfbcd"/><rect x="643.43" y="402.14" width="80.43" height="80.43" fill="#f8fbf3"/><rect x="723.86" y="402.14" width="80.43" height="80.43" fill="#faf58c"/><rect x="723.86" y="402.14" width="80.43" height="80.43" fill="#ebf4dc"/><rect x="804.29" y="402.14" width="80.43" height="80.43" fill="#deedc5"/><polygon points="804.29,402.14 884.72,482.57 804.29,482.57" fill="#f9fbf4"/><rect x="884.71" y="402.14" width="80.43" height="80.43" fill="#fefefd"/><polygon points="884.71,402.14 965.1400000000001,402.14 965.1400000000001,482.57" fill="#fdfaca"/><rect x="965.14" y="402.14" width="80.43" height="80.43" fill="#e5f0d1"/><path d="M 965.14 402.14 A 80.43 80.43 0 0 1  1045.57 482.57 L 965.14 402.14 A 80.43 80.43 0 0 0 1045.57 482.57" fill="#feecd4"/><rect x="1045.57" y="402.14" width="80.43" height="80.43" fill="#edf5e0"/><polygon points="1045.57,402.14 1126,402.14 1126,482.57" fill="#f2f8e8"/><rect x="0" y="482.57" width="80.43" height="80.43" fill="#fcf8ad"/><rect x="0" y="482.57" width="80.43" height="80.43" fill="#fddaab"/><rect x="80.43" y="482.57" width="80.43" height="80.43" fill="#fbf58c"/><polygon points="160.86,482.57 160.86,563 80.43,563" fill="#fdd5a1"/><rect x="160.86" y="482.57" width="80.43" height="80.43" fill="#f6faef"/><polygon points="160.86,482.57 241.29000000000002,482.57 241.29000000000002,563" fill="#e7f2d5"/><rect x="241.29" y="482.57" width="80.43" height="80.43" fill="#e6f1d4"/><path d="M 241.29 482.57 A 80.43 80.43 0 0 1 321.72 563 L 241.29 563" fill="#dcecc1"/><rect x="321.71" y="482.57" width="80.43" height="80.43" fill="#ddecc3"/><rect x="321.71" y="482.57" width="80.43" height="80.43" fill="#faf482"/><rect x="402.14" y="482.57" width="80.43" height="80.43" fill="#fdd29b"/><rect x="402.14" y="482.57" width="80.43" height="80.43" fill="#d9eabc"/><rect x="482.57" y="482.57" width="80.43" height="80.43" fill="#ebf4dd"/><rect x="482.57" y="482.57" width="80.43" height="80.43" fill="#f8fbf4"/><rect x="563" y="482.57" width="80.43" height="80.43" fill="#d8e9ba"/><path d="M 563 482.57 A 80.43 80.43 0 0 1 643.4300000000001 563 L 563 563" fill="#feefdc"/><rect x="643.43" y="482.57" width="80.43" height="80.43" fill="#fffef7"/><rect x="643.43" y="482.57" width="80.43" height="80.43" fill="#fefefc"/><rect x="723.86" y="482.57" width="80.43" height="80.43" fill="#e1eeca"/><path d="M 723.86 563 A 80.43 80.43 0 0 0 804.29 482.57 L 723.86 482.57" fill="#e2efcc"/><rect x="804.29" y="482.57" width="80.43" height="80.43" fill="#fffaf5"/><rect x="804.29" y="482.57" width="80.43" height="80.43" fill="#feefdc"/><rect x="884.71" y="482.57" width="80.43" height="80.43" fill="#dbebc0"/><rect x="884.71" y="482.57" width="80.43" height="80.43" fill="#fff9f1"/><rect x="965.14" y="482.57" width="80.43" height="80.43" fill="#dbebc0"/><rect x="965.14" y="482.57" width="80.43" height="80.43" fill="#e7f2d5"/><rect x="1045.57" y="482.57" width="80.43" height="80.43" fill="#f4f9eb"/><rect x="1045.57" y="482.57" width="80.43" height="80.43" fill="#fff7ed"/></g></svg>